<svg width="7" height="10" viewBox="0 0 7 10" fill="none" xmlns="http://www.w3.org/2000/svg">
<path d="M3.53125 9.10937C3.01563 9.10937 2.55599 9.02083 2.15234 8.84375C1.7513 8.66667 1.43229 8.42057 1.19531 8.10547C0.960938 7.78776 0.833333 7.41927 0.8125 7H1.79688C1.81771 7.25781 1.90625 7.48047 2.0625 7.66797C2.21875 7.85286 2.42318 7.99609 2.67578 8.09766C2.92839 8.19922 3.20833 8.25 3.51563 8.25C3.85938 8.25 4.16406 8.1901 4.42969 8.07031C4.69531 7.95052 4.90365 7.78385 5.05469 7.57031C5.20573 7.35677 5.28125 7.10938 5.28125 6.82812C5.28125 6.53385 5.20833 6.27474 5.0625 6.05078C4.91667 5.82422 4.70313 5.64714 4.42188 5.51953C4.14063 5.39193 3.79688 5.32812 3.39063 5.32812H2.75V4.46875H3.39063C3.70833 4.46875 3.98698 4.41146 4.22656 4.29687C4.46875 4.18229 4.65755 4.02083 4.79297 3.8125C4.93099 3.60417 5 3.35937 5 3.07812C5 2.80729 4.9401 2.57161 4.82031 2.37109C4.70052 2.17057 4.53125 2.01432 4.3125 1.90234C4.09635 1.79036 3.84115 1.73437 3.54688 1.73437C3.27083 1.73437 3.01042 1.78516 2.76563 1.88672C2.52344 1.98568 2.32552 2.13021 2.17188 2.32031C2.01823 2.50781 1.9349 2.73438 1.92188 3H0.984375C1 2.58073 1.1263 2.21354 1.36328 1.89844C1.60026 1.58073 1.91016 1.33333 2.29297 1.15625C2.67839 0.979166 3.10156 0.890625 3.5625 0.890625C4.05729 0.890625 4.48177 0.990885 4.83594 1.19141C5.1901 1.38932 5.46224 1.65104 5.65234 1.97656C5.84245 2.30208 5.9375 2.65365 5.9375 3.03125C5.9375 3.48177 5.81901 3.86589 5.58203 4.18359C5.34766 4.5013 5.02865 4.72135 4.625 4.84375V4.90625C5.13021 4.98958 5.52474 5.20443 5.80859 5.55078C6.09245 5.89453 6.23438 6.32031 6.23438 6.82812C6.23438 7.26302 6.11589 7.65365 5.87891 8C5.64453 8.34375 5.32422 8.61458 4.91797 8.8125C4.51172 9.01042 4.04948 9.10937 3.53125 9.10937Z" fill="white"/>
</svg>
